# xmcd
#
# Track frame offsets:
#	150
#	24366
#	38873
#	54650
#	70425
#	94326
#	106562
#	121273
#	133449
#	148432
#	170451
#	187141
#
# Disc length: 2819 seconds
#
# Revision: 0
# Processed by: cddbd v1.5.1PL0 Copyright (c) Steve Scherf et al.
# Submitted via: dBpowerAMP V4.0
#
DISCID=b60b010c
DTITLE=Pepe Ahlqvist - Small Timer
DYEAR=2003
DGENRE=Blues
TTITLE0=Small Timer
TTITLE1=All Shook Up
TTITLE2=Overdose
TTITLE3=Good Morning Little Schoolgirl
TTITLE4=Roadside Joint
TTITLE5=Shooting Star
TTITLE6=Rolling Tumbleweed
TTITLE7=Baby Please Don't Go
TTITLE8=A Gallon
TTITLE9=Unfair World
TTITLE10=Shame, Shame, Shame
TTITLE11=Jammin' Jan
EXTD=Pepe Ahlqvist and The Rolling Tumbleweed\n\n
EXTT0=
EXTT1=
EXTT2=
EXTT3=
EXTT4=
EXTT5=
EXTT6=
EXTT7=
EXTT8=
EXTT9=
EXTT10=
EXTT11=
PLAYORDER=
